<svg xmlns="http://www.w3.org/2000/svg" viewBox="0 0 32 32"><title>14-Mail</title><g id="_14-Mail" data-name="14-Mail"><path d="M11,24H4a4,4,0,0,1-4-4V4A4,4,0,0,1,4,0H28a4,4,0,0,1,4,4v9a1,1,0,0,1-2,0V4a2,2,0,0,0-2-2H4A2,2,0,0,0,2,4V20a2,2,0,0,0,2,2h7a1,1,0,0,1,0,2Z"/><path d="M16,14a1,1,0,0,1-.618-.214l-14-11A1,1,0,0,1,2.618,1.214L16,11.728,29.382,1.214a1,1,0,1,1,1.236,1.572l-14,11A1,1,0,0,1,16,14Z"/><path d="M2,23a1,1,0,0,1-.707-1.707l11-11a1,1,0,0,1,1.414,1.414l-11,11A1,1,0,0,1,2,23Z"/><path d="M23,32a9,9,0,1,1,9-9A9.011,9.011,0,0,1,23,32Zm0-16a7,7,0,1,0,7,7A7.008,7.008,0,0,0,23,16Z"/><path d="M23,26a4,4,0,1,1,4-4A4,4,0,0,1,23,26Zm0-6a2,2,0,1,0,2,2A2,2,0,0,0,23,20Z"/><path d="M27,30a1,1,0,0,1-.9-.553l-.239-.485C24.936,27.07,24.344,26,23,26s-1.936,1.07-2.866,2.962l-.239.485a1,1,0,1,1-1.79-.894l.235-.473c.94-1.913,2-4.08,4.66-4.08s3.72,2.167,4.66,4.08l.235.473A1,1,0,0,1,27,30Z"/></g></svg>